<svg width="98" height="62" viewBox="0 0 98 62" fill="none" xmlns="http://www.w3.org/2000/svg">
<path d="M7.32322 61.7735C5.19143 61.7735 3.55969 61.2011 2.428 60.0563C1.29631 58.8983 0.730469 57.3257 0.730469 55.3387C0.730469 53.2332 1.27657 51.5949 2.36879 50.4237C3.47416 49.2526 5.11906 48.667 7.30348 48.667C8.06671 48.667 8.75099 48.7262 9.35631 48.8446C9.9748 48.9499 10.5538 49.1012 11.0933 49.2986V51.6278C9.9748 51.1672 8.77731 50.937 7.50087 50.937C6.05336 50.937 5.01378 51.2988 4.38214 52.0226C3.7505 52.7463 3.43468 53.8517 3.43468 55.3387C3.43468 58.1284 4.80324 59.5233 7.54035 59.5233C8.15883 59.5233 8.77073 59.4707 9.37605 59.3654C9.98138 59.247 10.5604 59.0759 11.1131 58.8522V61.2011C10.5735 61.3722 9.99453 61.5104 9.37605 61.6156C8.77073 61.7209 8.08645 61.7735 7.32322 61.7735Z" fill="#4B4568"/>
<path d="M11.9685 61.5762L16.8242 48.8644H19.7455L24.5815 61.5762H21.8181L20.614 58.5166H15.936L14.7516 61.5762H11.9685ZM16.3307 56.4638H20.2193L18.2651 51.3515L16.3307 56.4638Z" fill="#4B4568"/>
<path d="M26.4348 61.5762V48.8644H29.0996V59.5233H35.3568V61.5762H26.4348Z" fill="#4B4568"/>
<path d="M36.8247 61.5762V48.8644H45.944V50.937H39.4894V54.1939H45.2136V56.2467H39.4894V59.5233H45.944V61.5762H36.8247Z" fill="#4B4568"/>
<path d="M47.7928 61.5762V48.8644H50.1022L56.1226 57.3323V48.8644H58.7873V61.5762H56.4779L50.4575 53.1082V61.5762H47.7928Z" fill="#4B4568"/>
<path d="M61.0355 61.5762V48.8644H66.365C68.2731 48.8644 69.7074 49.3578 70.668 50.3448C71.6418 51.3186 72.1287 52.9635 72.1287 55.2795C72.1287 57.4639 71.6484 59.0627 70.6878 60.076C69.7403 61.0761 68.2994 61.5762 66.365 61.5762H61.0355ZM63.7002 59.5233H65.9899C66.74 59.5233 67.3717 59.4115 67.8849 59.1878C68.3981 58.9509 68.7797 58.5298 69.0297 57.9245C69.2929 57.306 69.4245 56.4243 69.4245 55.2795C69.4245 54.1346 69.3061 53.2595 69.0692 52.6542C68.8323 52.0489 68.4639 51.6344 67.9638 51.4107C67.4638 51.187 66.8058 51.0751 65.9899 51.0751H63.7002V59.5233Z" fill="#4B4568"/>
<path d="M72.5148 61.5762L77.3706 48.8644H80.2919L85.1279 61.5762H82.3645L81.1604 58.5166H76.4823L75.298 61.5762H72.5148ZM76.8771 56.4638H80.7657L78.8115 51.3515L76.8771 56.4638Z" fill="#4B4568"/>
<path d="M86.9812 61.5762V48.8644H93.0805C94.5412 48.8644 95.6136 49.2526 96.2979 50.029C96.9822 50.7922 97.3243 51.8252 97.3243 53.128C97.3243 53.9833 97.1006 54.7202 96.6532 55.3387C96.219 55.9572 95.6005 56.4046 94.7978 56.6809C95.0083 56.852 95.1728 57.0362 95.2912 57.2336C95.4228 57.431 95.5544 57.6942 95.686 58.0232L97.2256 61.5762H94.4622L92.9621 58.1613C92.8305 57.8718 92.6857 57.6679 92.5278 57.5494C92.3699 57.431 92.1067 57.3718 91.7383 57.3718H89.6459V61.5762H86.9812ZM89.6459 55.161H92.3896C93.0871 55.161 93.6332 55.0097 94.028 54.7071C94.4227 54.3912 94.6201 53.8649 94.6201 53.128C94.6201 52.4174 94.449 51.8976 94.1069 51.5686C93.7648 51.2396 93.245 51.0751 92.5475 51.0751H89.6459V55.161Z" fill="#4B4568"/>
<path d="M4.47168 11.0176V20.494C4.47168 28.1975 10.7166 34.4424 18.4201 34.4424V34.4424C26.1236 34.4424 32.3685 28.1975 32.3685 20.494V11.0176" stroke="#7B5CFF" stroke-width="8.94403"/>
<path d="M35.7292 31.6422C35.9823 31.0676 36.8406 31.2483 36.8406 31.8761L36.8406 38.0632C36.8406 38.5336 36.4593 38.915 35.9888 38.915H30.0752C29.4239 38.915 29.2157 38.0375 29.7976 37.7449L30.0516 37.6171C32.5807 36.3453 34.5881 34.2328 35.7292 31.6422V31.6422Z" fill="#7B5CFF"/>
<path d="M27.8978 11.0176H36.8418V21.6652C34.9252 40.831 14.1623 42.1087 6.81541 34.7618C23.1063 39.6598 27.4364 27.9828 27.8978 21.6652V11.0176Z" fill="url(#paint0_linear_662_2132)"/>
<path d="M8.94403 11.0176H0V21.6652C1.91658 40.831 22.6795 42.1087 30.0264 34.7618C13.7355 39.6598 9.40543 27.9828 8.94403 21.6652V11.0176Z" fill="url(#paint1_linear_662_2132)"/>
<path d="M76.3271 39.1777V29.7013C76.3271 21.9978 70.0822 15.7529 62.3787 15.7529V15.7529C54.6752 15.7529 48.4303 21.9978 48.4303 29.7013V39.1777" stroke="#7CC0FF" stroke-width="8.94403"/>
<path d="M45.0696 18.5531C44.8165 19.1277 43.9582 18.947 43.9582 18.3192L43.9582 12.1321C43.9582 11.6617 44.3396 11.2803 44.81 11.2803H50.7236C51.375 11.2803 51.5832 12.1578 51.0012 12.4505L50.7472 12.5782C48.2182 13.85 46.2108 15.9625 45.0696 18.5531V18.5531Z" fill="#7CC0FF"/>
<path d="M71.8538 39.1748H80.7979V28.5271C78.8813 9.36137 58.1183 8.08365 50.7715 15.4305C67.0624 10.5326 71.3924 22.2095 71.8538 28.5271V39.1748Z" fill="url(#paint2_linear_662_2132)"/>
<path d="M52.902 39.1748H43.958V28.5271C45.8746 9.36137 66.6375 8.08365 73.9844 15.4305C57.6935 10.5326 53.3634 22.2095 52.902 28.5271V39.1748Z" fill="url(#paint3_linear_662_2132)"/>
<rect x="88.0566" y="10.6475" width="8.94403" height="27.8969" fill="#F5AD37"/>
<path d="M88.0566 4.47201C88.0566 2.00219 90.0588 0 92.5287 0V0C94.9985 0 97.0007 2.00219 97.0007 4.47201V4.47201C97.0007 6.94184 94.9985 8.94403 92.5287 8.94403V8.94403C90.0588 8.94403 88.0566 6.94184 88.0566 4.47201V4.47201Z" fill="#F34568"/>
<path d="M92.1235 1.67292C92.251 1.28053 92.8061 1.28053 92.9336 1.67292L93.3413 2.92777C93.3983 3.10325 93.5619 3.22206 93.7464 3.22206H95.0658C95.4784 3.22206 95.6499 3.75002 95.3161 3.99253L94.2487 4.76807C94.0994 4.87653 94.037 5.06877 94.094 5.24425L94.5017 6.4991C94.6292 6.89149 94.1801 7.21779 93.8463 6.97528L92.7789 6.19974C92.6296 6.09128 92.4275 6.09128 92.2782 6.19974L91.2108 6.97528C90.877 7.21779 90.4279 6.89149 90.5553 6.4991L90.9631 5.24425C91.0201 5.06877 90.9576 4.87653 90.8084 4.76807L89.7409 3.99253C89.4071 3.75002 89.5787 3.22206 89.9913 3.22206H91.3107C91.4952 3.22206 91.6587 3.10325 91.7157 2.92777L92.1235 1.67292Z" fill="white"/>
<path d="M97.0007 26.406V10.6475H88.0566C88.0566 10.6475 88.0566 26.406 97.0007 26.406Z" fill="url(#paint4_linear_662_2132)"/>
<defs>
<linearGradient id="paint0_linear_662_2132" x1="21.8286" y1="11.0176" x2="21.8286" y2="60.1033" gradientUnits="userSpaceOnUse">
<stop stop-color="#BCABFF"/>
<stop offset="1" stop-color="#5030DB" stop-opacity="0"/>
</linearGradient>
<linearGradient id="paint1_linear_662_2132" x1="15.0132" y1="11.0176" x2="15.0132" y2="38.9113" gradientUnits="userSpaceOnUse">
<stop stop-color="#F6AE38"/>
<stop offset="1" stop-color="#5030DB"/>
</linearGradient>
<linearGradient id="paint2_linear_662_2132" x1="65.7847" y1="39.1748" x2="65.8911" y2="11.2811" gradientUnits="userSpaceOnUse">
<stop stop-color="#D6EBFE"/>
<stop offset="1" stop-color="#B7DDFF" stop-opacity="0"/>
</linearGradient>
<linearGradient id="paint3_linear_662_2132" x1="58.9712" y1="39.1748" x2="59.0777" y2="17.3502" gradientUnits="userSpaceOnUse">
<stop stop-color="#F6AE38"/>
<stop offset="1" stop-color="#2FA1FA"/>
</linearGradient>
<linearGradient id="paint4_linear_662_2132" x1="92.5287" y1="10.6475" x2="92.5287" y2="26.406" gradientUnits="userSpaceOnUse">
<stop stop-color="#F34568"/>
<stop offset="1" stop-color="#F5AD37"/>
</linearGradient>
</defs>
</svg>
