<svg width="171" height="62" viewBox="0 0 171 62" fill="none" xmlns="http://www.w3.org/2000/svg">
<circle cx="30" cy="31" r="30" fill="#7B5CFF"/>
<circle cx="30" cy="31" r="30" fill="url(#paint0_linear_662_2162)"/>
<circle cx="30" cy="31" r="30" fill="url(#paint1_linear_662_2162)"/>
<circle cx="30" cy="31" r="30" fill="#7B5CFF"/>
<circle cx="30" cy="31" r="30" fill="url(#paint2_linear_662_2162)"/>
<circle cx="30" cy="31" r="30" fill="url(#paint3_linear_662_2162)"/>
<circle cx="30" cy="31" r="30" fill="url(#paint4_linear_662_2162)"/>
<circle cx="30" cy="31" r="30" fill="url(#paint5_linear_662_2162)"/>
<path d="M17.3066 20.4229V28.9805C17.3066 35.9372 22.9461 41.5767 29.9028 41.5767V41.5767C36.8595 41.5767 42.4989 35.9372 42.4989 28.9805V20.4229" stroke="white" stroke-width="8.07692"/>
<path d="M45.535 39.048C45.7636 38.5291 46.5386 38.6922 46.5387 39.2592L46.5387 44.8465C46.5387 45.2713 46.1943 45.6157 45.7695 45.6157H40.4292C39.841 45.6157 39.6529 44.8233 40.1784 44.559L40.4079 44.4436C42.6917 43.2951 44.5045 41.3874 45.535 39.048V39.048Z" fill="white"/>
<path d="M41.9512 10.1887C42.1239 9.65716 42.8758 9.65716 43.0485 10.1887L43.5792 11.822C43.6565 12.0597 43.878 12.2207 44.1279 12.2207H45.8453C46.4042 12.2207 46.6366 12.9358 46.1844 13.2643L44.795 14.2738C44.5928 14.4207 44.5082 14.6811 44.5855 14.9188L45.1162 16.5522C45.2889 17.0837 44.6805 17.5257 44.2284 17.1972L42.839 16.1877C42.6368 16.0408 42.3629 16.0408 42.1607 16.1877L40.7713 17.1972C40.3192 17.5257 39.7108 17.0837 39.8835 16.5522L40.4142 14.9188C40.4915 14.6811 40.4069 14.4207 40.2047 14.2738L38.8153 13.2643C38.3631 12.9358 38.5955 12.2207 39.1544 12.2207H40.8718C41.1217 12.2207 41.3432 12.0597 41.4205 11.822L41.9512 10.1887Z" fill="white"/>
<path d="M80.3232 61.7735C78.1914 61.7735 76.5597 61.2011 75.428 60.0563C74.2963 58.8983 73.7305 57.3257 73.7305 55.3387C73.7305 53.2332 74.2766 51.5949 75.3688 50.4237C76.4742 49.2526 78.1191 48.667 80.3035 48.667C81.0667 48.667 81.751 48.7262 82.3563 48.8446C82.9748 48.9499 83.5538 49.1012 84.0933 49.2986V51.6278C82.9748 51.1672 81.7773 50.937 80.5009 50.937C79.0534 50.937 78.0138 51.2988 77.3821 52.0226C76.7505 52.7463 76.4347 53.8517 76.4347 55.3387C76.4347 58.1284 77.8032 59.5233 80.5403 59.5233C81.1588 59.5233 81.7707 59.4707 82.3761 59.3654C82.9814 59.247 83.5604 59.0759 84.1131 58.8522V61.2011C83.5735 61.3722 82.9945 61.5104 82.3761 61.6156C81.7707 61.7209 81.0865 61.7735 80.3232 61.7735Z" fill="#4B4568"/>
<path d="M84.9685 61.5762L89.8242 48.8644H92.7455L97.5815 61.5762H94.8181L93.614 58.5166H88.936L87.7516 61.5762H84.9685ZM89.3307 56.4638H93.2193L91.2651 51.3515L89.3307 56.4638Z" fill="#4B4568"/>
<path d="M99.4348 61.5762V48.8644H102.1V59.5233H108.357V61.5762H99.4348Z" fill="#4B4568"/>
<path d="M109.825 61.5762V48.8644H118.944V50.937H112.489V54.1939H118.214V56.2467H112.489V59.5233H118.944V61.5762H109.825Z" fill="#4B4568"/>
<path d="M120.793 61.5762V48.8644H123.102L129.123 57.3323V48.8644H131.787V61.5762H129.478L123.458 53.1082V61.5762H120.793Z" fill="#4B4568"/>
<path d="M134.036 61.5762V48.8644H139.365C141.273 48.8644 142.707 49.3578 143.668 50.3448C144.642 51.3186 145.129 52.9635 145.129 55.2795C145.129 57.4639 144.648 59.0627 143.688 60.076C142.74 61.0761 141.299 61.5762 139.365 61.5762H134.036ZM136.7 59.5233H138.99C139.74 59.5233 140.372 59.4115 140.885 59.1878C141.398 58.9509 141.78 58.5298 142.03 57.9245C142.293 57.306 142.424 56.4243 142.424 55.2795C142.424 54.1346 142.306 53.2595 142.069 52.6542C141.832 52.0489 141.464 51.6344 140.964 51.4107C140.464 51.187 139.806 51.0751 138.99 51.0751H136.7V59.5233Z" fill="#4B4568"/>
<path d="M145.515 61.5762L150.371 48.8644H153.292L158.128 61.5762H155.364L154.16 58.5166H149.482L148.298 61.5762H145.515ZM149.877 56.4638H153.766L151.812 51.3515L149.877 56.4638Z" fill="#4B4568"/>
<path d="M159.981 61.5762V48.8644H166.08C167.541 48.8644 168.614 49.2526 169.298 50.029C169.982 50.7922 170.324 51.8252 170.324 53.128C170.324 53.9833 170.101 54.7202 169.653 55.3387C169.219 55.9572 168.6 56.4046 167.798 56.6809C168.008 56.852 168.173 57.0362 168.291 57.2336C168.423 57.431 168.554 57.6942 168.686 58.0232L170.226 61.5762H167.462L165.962 58.1613C165.83 57.8718 165.686 57.6679 165.528 57.5494C165.37 57.431 165.107 57.3718 164.738 57.3718H162.646V61.5762H159.981ZM162.646 55.161H165.39C166.087 55.161 166.633 55.0097 167.028 54.7071C167.423 54.3912 167.62 53.8649 167.62 53.128C167.62 52.4174 167.449 51.8976 167.107 51.5686C166.765 51.2396 166.245 51.0751 165.548 51.0751H162.646V55.161Z" fill="#4B4568"/>
<path d="M77.4717 11.0176V20.494C77.4717 28.1975 83.7166 34.4424 91.4201 34.4424V34.4424C99.1236 34.4424 105.369 28.1975 105.369 20.494V11.0176" stroke="#7B5CFF" stroke-width="8.94403"/>
<path d="M108.729 31.6422C108.982 31.0676 109.841 31.2483 109.841 31.8761L109.841 38.0632C109.841 38.5336 109.459 38.915 108.989 38.915H103.075C102.424 38.915 102.216 38.0375 102.798 37.7449L103.052 37.6171C105.581 36.3453 107.588 34.2328 108.729 31.6422V31.6422Z" fill="#7B5CFF"/>
<path d="M100.898 11.0176H109.842V21.6652C107.925 40.831 87.1623 42.1087 79.8154 34.7618C96.1063 39.6598 100.436 27.9828 100.898 21.6652V11.0176Z" fill="url(#paint6_linear_662_2162)"/>
<path d="M81.944 11.0176H73V21.6652C74.9166 40.831 95.6795 42.1087 103.026 34.7618C86.7355 39.6598 82.4054 27.9828 81.944 21.6652V11.0176Z" fill="url(#paint7_linear_662_2162)"/>
<path d="M149.327 39.1777V29.7013C149.327 21.9978 143.082 15.7529 135.379 15.7529V15.7529C127.675 15.7529 121.43 21.9978 121.43 29.7013V39.1777" stroke="#7CC0FF" stroke-width="8.94403"/>
<path d="M118.07 18.5531C117.817 19.1277 116.958 18.947 116.958 18.3192L116.958 12.1321C116.958 11.6617 117.34 11.2803 117.81 11.2803H123.724C124.375 11.2803 124.583 12.1578 124.001 12.4505L123.747 12.5782C121.218 13.85 119.211 15.9625 118.07 18.5531V18.5531Z" fill="#7CC0FF"/>
<path d="M144.854 39.1748H153.798V28.5271C151.881 9.36137 131.118 8.08365 123.771 15.4305C140.062 10.5326 144.392 22.2095 144.854 28.5271V39.1748Z" fill="url(#paint8_linear_662_2162)"/>
<path d="M125.902 39.1748H116.958V28.5271C118.875 9.36137 139.638 8.08365 146.984 15.4305C130.693 10.5326 126.363 22.2095 125.902 28.5271V39.1748Z" fill="url(#paint9_linear_662_2162)"/>
<rect x="161.057" y="10.6475" width="8.94403" height="27.8969" fill="#F5AD37"/>
<path d="M161.057 4.47201C161.057 2.00219 163.059 0 165.529 0V0C167.998 0 170.001 2.00219 170.001 4.47201V4.47201C170.001 6.94184 167.998 8.94403 165.529 8.94403V8.94403C163.059 8.94403 161.057 6.94184 161.057 4.47201V4.47201Z" fill="#F34568"/>
<path d="M165.123 1.67292C165.251 1.28053 165.806 1.28053 165.934 1.67292L166.341 2.92777C166.398 3.10325 166.562 3.22206 166.746 3.22206H168.066C168.478 3.22206 168.65 3.75002 168.316 3.99253L167.249 4.76807C167.099 4.87653 167.037 5.06877 167.094 5.24425L167.502 6.4991C167.629 6.89149 167.18 7.21779 166.846 6.97528L165.779 6.19974C165.63 6.09128 165.427 6.09128 165.278 6.19974L164.211 6.97528C163.877 7.21779 163.428 6.89149 163.555 6.4991L163.963 5.24425C164.02 5.06877 163.958 4.87653 163.808 4.76807L162.741 3.99253C162.407 3.75002 162.579 3.22206 162.991 3.22206H164.311C164.495 3.22206 164.659 3.10325 164.716 2.92777L165.123 1.67292Z" fill="white"/>
<path d="M170.001 26.406V10.6475H161.057C161.057 10.6475 161.057 26.406 170.001 26.406Z" fill="url(#paint10_linear_662_2162)"/>
<defs>
<linearGradient id="paint0_linear_662_2162" x1="45.9615" y1="1" x2="12.7885" y2="61" gradientUnits="userSpaceOnUse">
<stop stop-color="#4E31DB" stop-opacity="0"/>
<stop offset="1" stop-color="#4E31DB"/>
</linearGradient>
<linearGradient id="paint1_linear_662_2162" x1="13.6045" y1="61" x2="60" y2="-19.2885" gradientUnits="userSpaceOnUse">
<stop stop-color="#B09BFF" stop-opacity="0"/>
<stop offset="1" stop-color="#AF9BFB"/>
</linearGradient>
<linearGradient id="paint2_linear_662_2162" x1="30" y1="21.5769" x2="12.7885" y2="61" gradientUnits="userSpaceOnUse">
<stop stop-color="#4E31DB" stop-opacity="0"/>
<stop offset="1" stop-color="#4E31DB"/>
</linearGradient>
<linearGradient id="paint3_linear_662_2162" x1="24.0385" y1="27.25" x2="53.6538" y2="24.5577" gradientUnits="userSpaceOnUse">
<stop stop-color="#7FB1FF" stop-opacity="0"/>
<stop offset="1" stop-color="#7DB0FF"/>
</linearGradient>
<linearGradient id="paint4_linear_662_2162" x1="40.2885" y1="35.5192" x2="30" y2="6.09615" gradientUnits="userSpaceOnUse">
<stop stop-color="#F3A93C" stop-opacity="0"/>
<stop offset="1" stop-color="#FFAE3B"/>
</linearGradient>
<linearGradient id="paint5_linear_662_2162" x1="35.0962" y1="29.8462" x2="47.7885" y2="3.5" gradientUnits="userSpaceOnUse">
<stop stop-color="#B09BFF" stop-opacity="0"/>
<stop offset="1" stop-color="#B5A1FF"/>
</linearGradient>
<linearGradient id="paint6_linear_662_2162" x1="94.8286" y1="11.0176" x2="94.8286" y2="60.1033" gradientUnits="userSpaceOnUse">
<stop stop-color="#BCABFF"/>
<stop offset="1" stop-color="#5030DB" stop-opacity="0"/>
</linearGradient>
<linearGradient id="paint7_linear_662_2162" x1="88.0132" y1="11.0176" x2="88.0132" y2="38.9113" gradientUnits="userSpaceOnUse">
<stop stop-color="#F6AE38"/>
<stop offset="1" stop-color="#5030DB"/>
</linearGradient>
<linearGradient id="paint8_linear_662_2162" x1="138.785" y1="39.1748" x2="138.891" y2="11.2811" gradientUnits="userSpaceOnUse">
<stop stop-color="#D6EBFE"/>
<stop offset="1" stop-color="#B7DDFF" stop-opacity="0"/>
</linearGradient>
<linearGradient id="paint9_linear_662_2162" x1="131.971" y1="39.1748" x2="132.078" y2="17.3502" gradientUnits="userSpaceOnUse">
<stop stop-color="#F6AE38"/>
<stop offset="1" stop-color="#2FA1FA"/>
</linearGradient>
<linearGradient id="paint10_linear_662_2162" x1="165.529" y1="10.6475" x2="165.529" y2="26.406" gradientUnits="userSpaceOnUse">
<stop stop-color="#F34568"/>
<stop offset="1" stop-color="#F5AD37"/>
</linearGradient>
</defs>
</svg>
